<svg xmlns="http://www.w3.org/2000/svg" version="1.0" width="30.000000pt" height="30.000000pt" viewBox="0 0 1500.000000 1500.000000" preserveAspectRatio="xMidYMid meet">
            <g transform="translate(0.000000,1500.000000) scale(0.100000,-0.100000)" fill="#000000" stroke="none">
            <path d="M6895 14980 c-998 -85 -1896 -337 -2770 -777 -1086 -547 -2022 -1351 -2736 -2348 -635 -887 -1074 -1924 -1269 -2992 -162 -893 -162 -1833 0 -2726 172 -944 533 -1858 1059 -2682 507 -795 1187 -1509 1966 -2066 890 -637 1922 -1074 2992 -1268 892 -163 1834 -163 2723 -2 2036 370 3855 1596 4971 3351 527 828 881 1732 1053 2692 82 456 116 841 116 1338 0 497 -34 882 -116 1338 -323 1796 -1292 3410 -2734 4553 -957 758 -2105 1276 -3310 1493 -252 45 -459 72 -750 96 -313 26 -887 26 -1195 0z m1105 -385 c1570 -120 2978 -703 4160 -1723 177 -153 547 -522 695 -692 780 -899 1316 -1948 1579 -3090 180 -786 224 -1640 125 -2455 -155 -1285 -669 -2519 -1472 -3535 -331 -418 -776 -863 -1187 -1187 -1592 -1254 -3635 -1767 -5635 -1417 -1268 223 -2435 779 -3425 1633 -188 162 -552 526 -711 711 -1133 1316 -1738 2934 -1739 4655 -1 1728 602 3345 1739 4665 160 186 524 550 711 711 1173 1013 2581 1600 4135 1723 239 19 784 20 1025 1z"/>
            <path d="M7190 14293 c-385 -23 -836 -88 -1205 -174 -2167 -503 -3956 -2048 -4772 -4124 -449 -1142 -577 -2427 -362 -3655 303 -1734 1277 -3281 2723 -4325 907 -654 1993 -1079 3101 -1214 545 -67 1147 -69 1655 -6 510 63 597 80 1030 205 1141 329 2115 899 2942 1722 894 891 1512 1992 1808 3222 185 769 231 1637 130 2440 -126 995 -470 1940 -1017 2796 -510 799 -1229 1519 -2027 2032 -479 309 -926 525 -1491 723 -99 35 -227 82 -285 105 -352 141 -752 217 -1307 250 -156 9 -787 11 -923 3z m720 -483 c271 -10 432 -21 580 -41 1015 -135 1500 -521 1660 -1319 47 -237 55 -335 54 -695 -1 -557 -49 -879 -185 -1243 -300 -805 -986 -1592 -2004 -2298 -129 -90 -322 -215 -442 -288 l-63 -37 -112 77 c-538 370 -919 673 -1256 999 -654 633 -1052 1300 -1196 2007 -101 494 -114 1028 -35 1395 201 931 992 1396 2464 1446 189 7 275 6 535 -3z m-3077 -467 c-228 -280 -379 -661 -438 -1108 -61 -458 1 -1156 146 -1653 312 -1066 1115 -2016 2511 -2971 l107 -74 -152 -105 c-1312 -907 -2077 -1789 -2415 -2783 -88 -257 -132 -452 -176 -774 -74 -538 -55 -1034 55 -1420 79 -276 226 -564 387 -753 30 -35 52 -66 49 -69 -3 -2 -94 38 -201 91 -1844 894 -3164 2633 -3526 4641 -117 648 -134 1350 -49 1995 186 1414 823 2704 1834 3715 477 478 983 850 1580 1163 130 68 321 161 333 162 1 0 -19 -26 -45 -57z m5636 -90 c486 -256 856 -507 1261 -852 165 -142 500 -473 642 -637 929 -1068 1469 -2358 1579 -3774 16 -202 16 -720 0 -930 -106 -1417 -655 -2726 -1593 -3798 -56 -64 -184 -198 -283 -297 -415 -416 -853 -751 -1360 -1042 -123 -71 -397 -213 -409 -213 -3 0 18 37 46 83 175 281 282 639 329 1097 25 239 15 732 -22 1070 -88 818 -494 1595 -1230 2354 -358 369 -779 712 -1307 1063 l-243 162 98 62 c1131 727 1914 1522 2341 2374 276 552 376 1039 375 1825 0 297 -11 443 -49 670 -20 117 -74 331 -110 431 -31 88 -131 301 -174 370 -16 27 -27 49 -23 49 3 0 63 -30 132 -67z m-2879 -6138 c137 -48 579 -348 917 -622 451 -364 876 -815 1140 -1208 164 -244 311 -539 400 -800 115 -340 156 -642 157 -1165 1 -212 -4 -363 -12 -435 -47 -392 -130 -647 -290 -890 -59 -90 -247 -277 -339 -338 -442 -292 -1063 -410 -2072 -394 -512 8 -817 44 -1184 137 -421 107 -741 274 -977 510 -241 242 -377 530 -447 945 -29 173 -26 660 5 890 33 242 48 321 88 483 122 494 350 934 733 1412 143 179 556 596 766 773 328 276 675 532 862 636 155 86 179 92 253 66z"/>
            <path d="M6435 12460 c-288 -23 -518 -123 -669 -291 -56 -62 -125 -199 -162 -324 -24 -79 -28 -108 -28 -230 -1 -151 7 -193 56 -309 106 -247 371 -501 809 -776 424 -267 519 -339 716 -543 124 -129 244 -274 324 -396 29 -44 57 -77 61 -73 4 4 30 45 58 91 104 172 273 371 430 509 47 41 218 163 380 270 433 286 597 412 731 564 269 302 346 600 247 958 -83 303 -292 477 -638 531 -106 16 -362 6 -470 -19 -261 -61 -471 -172 -637 -339 l-84 -84 -22 28 c-228 294 -668 467 -1102 433z"/>
            <path d="M8420 8754 c-105 -27 -446 -94 -555 -109 -60 -9 -184 -19 -275 -22 -206 -7 -352 10 -694 78 -137 28 -253 46 -257 42 -17 -17 12 -81 60 -136 139 -158 385 -331 683 -480 l158 -78 90 36 c282 113 641 349 812 534 57 61 73 92 66 128 -4 23 -20 24 -88 7z"/>
            <path d="M4169 12830 c-194 -79 -563 -383 -984 -811 -581 -592 -943 -1094 -911 -1265 6 -31 37 -64 61 -64 5 0 47 26 92 59 265 190 572 281 945 281 228 0 365 -19 686 -96 188 -44 192 -44 192 4 0 20 -14 109 -30 197 -59 316 -74 467 -74 740 0 342 29 531 124 815 27 79 46 148 44 152 -9 15 -98 7 -145 -12z"/>
            <path d="M3647 8931 c-143 -333 -406 -623 -777 -856 -283 -177 -586 -307 -1094 -469 -312 -99 -376 -126 -376 -155 0 -15 9 -22 38 -27 218 -37 491 -110 691 -185 416 -156 729 -356 1032 -658 163 -164 238 -254 397 -485 106 -152 146 -199 170 -194 17 3 16 0 81 142 227 487 644 857 1257 1115 192 80 330 127 644 217 399 114 426 135 220 170 -553 93 -1036 305 -1450 637 -215 172 -382 348 -587 617 -147 193 -171 220 -192 220 -10 0 -30 -32 -54 -89z"/>
            <path d="M6113 8073 c3 -10 22 -64 42 -120 100 -285 97 -612 -10 -1013 -8 -30 -12 -56 -10 -58 2 -3 48 31 102 75 214 175 328 264 431 336 102 72 244 152 306 172 28 10 23 15 -235 201 -291 211 -602 424 -620 424 -6 0 -9 -8 -6 -17z"/>
            <path d="M2314 4325 c-102 -71 55 -372 425 -815 153 -184 253 -292 471 -513 413 -420 803 -740 980 -802 48 -17 126 -20 135 -5 3 5 -10 48 -30 96 -131 317 -189 683 -165 1047 14 200 33 325 81 537 22 96 43 194 46 218 7 54 12 54 -215 1 -315 -72 -439 -89 -665 -89 -368 0 -677 93 -940 281 -45 33 -87 59 -92 59 -6 0 -20 -7 -31 -15z"/>
            <path d="M10796 12802 c-3 -6 8 -48 25 -93 103 -282 143 -529 143 -884 0 -260 -15 -406 -74 -728 -16 -89 -32 -174 -35 -189 -9 -54 8 -54 227 -4 257 58 345 73 519 87 392 32 787 -71 1082 -282 45 -32 87 -59 92 -59 24 0 55 33 61 64 31 170 -337 681 -906 1260 -396 402 -741 693 -943 795 -71 36 -178 54 -191 33z"/>
            <path d="M11667 9104 c-305 -68 -545 -306 -612 -604 -19 -87 -22 -238 -6 -327 74 -402 451 -684 858 -643 111 12 166 27 268 75 163 76 291 200 369 360 68 137 81 195 80 365 0 137 -2 150 -33 240 -90 264 -287 451 -556 527 -77 22 -286 26 -368 7z"/>
            <path d="M13176 8522 c-3 -5 -19 -91 -36 -191 -60 -359 -105 -496 -187 -573 -87 -81 -279 -146 -603 -201 -243 -42 -284 -54 -288 -83 -4 -30 45 -48 268 -95 351 -74 501 -129 575 -210 70 -77 131 -233 215 -549 55 -203 74 -239 100 -190 19 35 29 316 30 765 0 681 -20 1251 -46 1320 -7 16 -20 20 -28 7z"/>
            <path d="M10275 8259 c-303 -44 -550 -262 -647 -569 -20 -64 -23 -96 -23 -220 0 -160 16 -232 77 -355 204 -406 685 -559 1092 -348 72 38 109 66 181 138 166 166 235 331 235 565 0 58 -7 135 -15 172 -85 406 -482 678 -900 617z"/>
            <path d="M8821 8055 c-100 -62 -191 -126 -504 -354 l-268 -196 40 -36 c74 -66 837 -586 847 -577 3 3 -7 34 -21 69 -115 282 -123 658 -20 1033 14 50 25 94 25 99 0 16 -29 5 -99 -38z"/>
            <path d="M11764 7408 c-342 -28 -623 -279 -699 -624 -26 -113 -17 -300 19 -409 67 -207 212 -377 401 -470 116 -57 185 -75 316 -82 226 -12 424 59 586 210 179 167 262 375 250 626 -8 178 -60 318 -171 457 -169 212 -418 316 -702 292z"/>
            <path d="M12675 4279 c-104 -77 -312 -180 -443 -218 -188 -55 -265 -65 -507 -65 -247 0 -336 12 -645 84 -95 22 -186 40 -201 40 -26 0 -29 -3 -29 -32 0 -18 14 -103 30 -188 120 -615 98 -1140 -67 -1609 -40 -113 -38 -121 24 -121 309 -1 1645 1313 1936 1905 41 83 60 157 52 196 -6 26 -48 70 -64 68 -3 0 -42 -28 -86 -60z"/>
            <path d="M7455 6906 c-372 -153 -865 -516 -865 -638 0 -16 6 -31 14 -34 8 -3 97 13 198 35 382 83 533 104 758 104 229 -1 486 -37 834 -118 68 -16 79 -10 65 38 -13 45 -35 75 -113 152 -117 116 -285 236 -496 354 -116 66 -277 141 -299 141 -9 -1 -52 -16 -96 -34z"/>
            <path d="M7558 5810 c-8 -14 -56 -95 -106 -181 -195 -336 -388 -621 -577 -851 -80 -96 -159 -176 -323 -321 -442 -394 -591 -590 -633 -832 -24 -142 6 -381 71 -545 89 -227 365 -395 709 -431 253 -26 490 37 635 170 l38 36 -5 -100 c-9 -143 -35 -218 -108 -306 -61 -73 -164 -120 -476 -213 -220 -67 -283 -98 -283 -141 0 -13 123 -15 1050 -15 578 0 1050 3 1050 6 0 17 -36 63 -66 83 -19 13 -125 55 -236 93 -110 38 -227 83 -260 99 -158 80 -248 239 -248 438 l0 73 53 -38 c69 -50 193 -107 292 -136 68 -19 103 -22 230 -22 134 1 160 3 240 28 226 69 403 209 493 391 102 203 100 475 -3 693 -96 203 -258 377 -639 686 -87 71 -185 157 -218 190 -204 208 -440 623 -657 1151 -7 18 -8 18 -23 -5z"/>
            </g>
</svg>
