<svg xmlns="http://www.w3.org/2000/svg" version="1.0" width="30px" height="30px" viewBox="650 -100 300 350" preserveAspectRatio="xMidYMid meet">
                                            <g transform="translate(0.000000,400.000000) scale(0.100000,-0.100000)" fill="red" stroke="none">
                                            <path d="M7957 4553 c-2 -4 -12 -34 -21 -67 -10 -32 -35 -97 -57 -145 -22 -47 -39 -88 -39 -90 1 -2 -3 -7 -8 -10 -5 -3 -31 -37 -57 -76 -81 -119 -195 -254 -325 -386 -187 -188 -333 -291 -738 -520 l-202 -114 47 -13 c149 -40 390 -152 538 -249 317 -210 555 -480 721 -818 54 -108 129 -308 146 -390 6 -23 1 -35 56 137 140 436 429 814 822 1073 149 98 395 213 525 246 25 6 44 14 41 16 -2 3 -56 22 -120 43 -430 145 -793 424 -1050 808 -82 123 -189 335 -235 467 -34 96 -37 101 -44 88z m-162 -393 c-9 -16 -18 -30 -21 -30 -2 0 2 14 11 30 9 17 18 30 21 30 2 0 -2 -13 -11 -30z"></path>
                                            </g>
                                            </svg>