<svg xmlns="http://www.w3.org/2000/svg" version="1.0" width="30px" height="30px" viewBox="950 -100 300 350" preserveAspectRatio="xMidYMid meet">
                                            <g transform="translate(0.000000,400.000000) scale(0.100000,-0.100000)" fill="black" stroke="none">
                                            <path d="M11465 4700 c-87 -139 -196 -255 -570 -600 -393 -364 -533 -525 -630 -725 -63 -130 -79 -198 -79 -335 0 -96 4 -125 24 -175 115 -298 460 -464 797 -384 91 21 228 95 298 160 36 34 65 57 65 53 -1 -26 -32 -194 -55 -298 -62 -278 -177 -516 -302 -626 -46 -40 -143 -92 -203 -108 -23 -7 206 -10 675 -10 689 0 708 0 655 17 -105 34 -171 81 -254 184 -122 153 -235 480 -281 812 l-7 50 54 -52 c72 -71 94 -87 174 -127 108 -54 181 -70 319 -70 138 0 208 16 325 72 98 48 223 169 269 259 127 254 48 556 -233 891 -86 102 -244 258 -516 509 -273 252 -347 332 -483 528 -13 18 -15 17 -42 -25z"></path>
                                            </g>
                                            </svg>